<?xml version="1.0" encoding="UTF-8"?>
<svg width="20px" height="20px" viewBox="0 0 20 20" version="1.1" xmlns="http://www.w3.org/2000/svg" xmlns:xlink="http://www.w3.org/1999/xlink">
    <!-- Generator: Sketch 52.4 (67378) - http://www.bohemiancoding.com/sketch -->
    <title>icon/back</title>
    <desc>Created with Sketch.</desc>
    <g id="icon/back" stroke="none" stroke-width="1" fill="none" fill-rule="evenodd">
        <path d="M16,9 C16.5522847,9 17,9.44771525 17,10 C17,10.5522847 16.5522847,11 16,11 L4,11 C3.44771525,11 3,10.5522847 3,10 C3,9.44771525 3.44771525,9 4,9 L16,9 Z M4.82842712,10.0002814 L11.1923882,16.3642424 C11.5829124,16.7547667 11.5829124,17.3879317 11.1923882,17.778456 C10.8018639,18.1689803 10.1686989,18.1689803 9.77817459,17.778456 L2.70710678,10.7073882 C2.31658249,10.3168639 2.31658249,9.68369888 2.70710678,9.29317459 L9.77817459,2.22210678 C10.1686989,1.83158249 10.8018639,1.83158249 11.1923882,2.22210678 C11.5829124,2.61263107 11.5829124,3.24579605 11.1923882,3.63632034 L4.82842712,10.0002814 Z" id="arrow" fill="#000000" fill-rule="nonzero"></path>
    </g>
</svg>