<?xml version="1.0" encoding="UTF-8"?>
<svg width="24px" height="24px" viewBox="0 0 24 24" version="1.1" xmlns="http://www.w3.org/2000/svg" xmlns:xlink="http://www.w3.org/1999/xlink">
    <!-- Generator: Sketch 52.5 (67469) - http://www.bohemiancoding.com/sketch -->
    <title>icon/cross</title>
    <desc>Created with Sketch.</desc>
    <g id="icon/cross" stroke="none" stroke-width="1" fill="none" fill-rule="evenodd">
        <path d="M13.0208153,11.0208153 L19.5208153,11.0208153 C20.0731,11.0208153 20.5208153,11.4685305 20.5208153,12.0208153 C20.5208153,12.5731 20.0731,13.0208153 19.5208153,13.0208153 L13.0208153,13.0208153 L13.0208153,19.5208153 C13.0208153,20.0731 12.5731,20.5208153 12.0208153,20.5208153 C11.4685305,20.5208153 11.0208153,20.0731 11.0208153,19.5208153 L11.0208153,13.0208153 L4.52081528,13.0208153 C3.96853053,13.0208153 3.52081528,12.5731 3.52081528,12.0208153 C3.52081528,11.4685305 3.96853053,11.0208153 4.52081528,11.0208153 L11.0208153,11.0208153 L11.0208153,4.52081528 C11.0208153,3.96853053 11.4685305,3.52081528 12.0208153,3.52081528 C12.5731,3.52081528 13.0208153,3.96853053 13.0208153,4.52081528 L13.0208153,11.0208153 Z" id="plus" fill="#000000" fill-rule="nonzero" transform="translate(12.020815, 12.020815) rotate(45.000000) translate(-12.020815, -12.020815) "></path>
    </g>
</svg>