<?xml version="1.0" encoding="UTF-8"?>
<svg width="20px" height="20px" viewBox="0 0 20 20" version="1.1" xmlns="http://www.w3.org/2000/svg" xmlns:xlink="http://www.w3.org/1999/xlink">
    <!-- Generator: Sketch 52.5 (67469) - http://www.bohemiancoding.com/sketch -->
    <title>icon/forward</title>
    <desc>Created with Sketch.</desc>
    <g id="icon/forward" stroke="none" stroke-width="1" fill="none" fill-rule="evenodd">
        <path d="M16.5857864,9 C17.1380712,9 17.5857864,9.44771525 17.5857864,10 C17.5857864,10.5522847 17.1380712,11 16.5857864,11 L4.58578644,11 C4.03350169,11 3.58578644,10.5522847 3.58578644,10 C3.58578644,9.44771525 4.03350169,9 4.58578644,9 L16.5857864,9 Z M5.41421356,10.0002814 L11.7781746,16.3642424 C12.1686989,16.7547667 12.1686989,17.3879317 11.7781746,17.778456 C11.3876503,18.1689803 10.7544853,18.1689803 10.363961,17.778456 L3.29289322,10.7073882 C2.90236893,10.3168639 2.90236893,9.68369888 3.29289322,9.29317459 L10.363961,2.22210678 C10.7544853,1.83158249 11.3876503,1.83158249 11.7781746,2.22210678 C12.1686989,2.61263107 12.1686989,3.24579605 11.7781746,3.63632034 L5.41421356,10.0002814 Z" id="arrow" fill="#000000" fill-rule="nonzero" transform="translate(10.292893, 10.000281) scale(-1, 1) translate(-10.292893, -10.000281) "></path>
    </g>
</svg>