<?xml version="1.0" encoding="UTF-8"?>
<svg width="24px" height="24px" viewBox="0 0 24 24" version="1.1" xmlns="http://www.w3.org/2000/svg" xmlns:xlink="http://www.w3.org/1999/xlink">
    <!-- Generator: Sketch 52.5 (67469) - http://www.bohemiancoding.com/sketch -->
    <title>icon/guest-projects</title>
    <desc>Created with Sketch.</desc>
    <g id="icon/guest-projects" stroke="none" stroke-width="1" fill="none" fill-rule="evenodd">
        <g id="Group" transform="translate(1.000000, 1.000000)" fill="#000000">
            <g id="group" fill-rule="nonzero">
                <path d="M12.8123347,11.1207479 C14.8579089,11.1207479 16.5158609,9.47866191 16.5158609,7.45336015 C16.5158609,5.42805838 14.8575938,3.78628449 12.8123347,3.78628449 C10.7670757,3.78628449 9.10817834,5.42837045 9.10817834,7.45367221 C9.10817834,9.47897398 10.7670757,11.1207479 12.8123347,11.1207479 Z" id="Path"></path>
                <path d="M17.3859596,12.4347826 L13.4347826,12.4347826 C12.8824979,12.4347826 12.4347826,12.8824979 12.4347826,13.4347826 L12.4347826,21.0270515 C10.8119678,20.9596575 8.91301881,20.6760112 6.77330555,20.0139759 L6.50858789,19.9319028 L6.49881855,19.8722984 L6.49881855,16.0666658 C6.49881855,13.4774627 8.62601403,11.3707119 11.2407312,11.3707119 L14.383308,11.3707119 C15.5217503,11.3707119 16.5677725,11.7700914 17.3859596,12.4347826 Z" id="Combined-Shape"></path>
                <path d="M6.31383133,7.33508752 C7.03833835,7.33508752 7.71242296,7.12569191 8.28345677,6.76900163 C8.46497746,5.59657347 9.09966956,4.57206412 10.0063275,3.87428681 C10.0101092,3.80563252 10.0167272,3.73760235 10.0167272,3.66832392 C10.0167272,1.64271009 8.35846011,0.000936194961 6.31383133,0.000936194961 C4.26794199,0.000936194961 2.61030521,1.64271009 2.61030521,3.66832392 C2.61030521,5.69300156 4.26794199,7.33508752 6.31383133,7.33508752 Z" id="Path"></path>
                <path d="M9.63981964,10.7328511 C8.80154705,9.93677331 8.27085117,8.83019087 8.23208894,7.60221515 C8.11643254,7.59378939 8.00203669,7.58473951 7.8841743,7.58473951 L4.74191265,7.58473951 C2.12719548,7.58473951 0,9.69117817 0,12.2800693 L0,16.0863259 L0.00976934221,16.1449942 L0.274487002,16.2276914 C2.27625673,16.8465163 4.0627858,17.1317437 5.61453551,17.2216184 L5.61453551,16.072283 C5.61516579,13.5514221 7.31503133,11.4178337 9.63981964,10.7328511 Z" id="Path"></path>
            </g>
            <rect id="Rectangle" x="13.3913043" y="13.3913043" width="3.65973535" height="3.65973535" rx="1"></rect>
            <rect id="Rectangle" x="18.173913" y="13.3913043" width="3.65973535" height="3.65973535" rx="1"></rect>
            <rect id="Rectangle" x="13.3913043" y="18.173913" width="3.65973535" height="3.65973535" rx="1"></rect>
            <rect id="Rectangle" x="18.173913" y="18.173913" width="3.65973535" height="3.65973535" rx="1"></rect>
        </g>
    </g>
</svg>