<?xml version="1.0" encoding="UTF-8"?>
<svg width="20px" height="20px" viewBox="0 0 20 20" version="1.1" xmlns="http://www.w3.org/2000/svg" xmlns:xlink="http://www.w3.org/1999/xlink">
    <!-- Generator: Sketch 52.4 (67378) - http://www.bohemiancoding.com/sketch -->
    <title>Shape</title>
    <desc>Created with Sketch.</desc>
    <g id="Icons" stroke="none" stroke-width="1" fill="none" fill-rule="evenodd">
        <g id="icon/loader" fill="#000000" fill-rule="nonzero">
            <path d="M10,20 C9.44771525,20 9,19.5522847 9,19 C9,18.4477153 9.44771525,18 10,18 C10.6009772,18 11.192649,17.933909 11.7679146,17.8042172 C12.3066774,17.6827549 12.8418956,18.0210438 12.9633579,18.5598066 C13.0848202,19.0985694 12.7465313,19.6337876 12.2077685,19.7552499 C11.4883901,19.9174314 10.7492051,20 10,20 Z M17.8098554,16.2460204 C17.4646625,16.6771355 16.8353404,16.7467892 16.4042253,16.4015963 C15.9731101,16.0564033 15.9034564,15.4270813 16.2486494,14.9959661 C16.6202769,14.5318365 16.9393285,14.0278953 17.1992339,13.4933969 C17.4407488,12.9967189 18.0391723,12.7898683 18.5358503,13.0313831 C19.0325283,13.2728979 19.2393789,13.8713214 18.9978641,14.3679994 C18.6728482,15.0363984 18.274099,15.6662216 17.8098554,16.2460204 Z M19.7670699,7.84533725 C19.8855826,8.38475654 19.5443704,8.91811584 19.0049511,9.03662859 C18.4655318,9.15514133 17.9321725,8.81392916 17.8136598,8.27450986 C17.6858203,7.69263925 17.4934603,7.12940124 17.2408079,6.59343147 C17.0053175,6.09386891 17.2193904,5.49799081 17.7189529,5.26250048 C18.2185155,5.02701015 18.8143936,5.24108299 19.0498839,5.74064555 C19.3661394,6.41154106 19.6070141,7.11683216 19.7670699,7.84533725 Z M14.3560187,0.996320097 C14.8530192,1.23717071 15.0606696,1.83531716 14.819819,2.33231759 C14.5789684,2.82931802 13.9808219,3.03696848 13.4838215,2.79611786 C12.9503908,2.53761283 12.3891148,2.33915925 11.8086909,2.20508855 C11.2705752,2.08079054 10.9351098,1.54379817 11.0594078,1.00568252 C11.1837058,0.467566877 11.7206982,0.132101402 12.2588138,0.256399414 C12.9855333,0.424262559 13.6883449,0.672759718 14.3560187,0.996320097 Z M5.76472709,0.93880352 C6.26491711,0.704648898 6.86022106,0.920313201 7.09437568,1.42050322 C7.32853031,1.92069324 7.112866,2.5159972 6.61267598,2.75015182 C6.07435574,3.0021564 5.56581897,3.31376524 5.0963268,3.6785525 C4.6602116,4.01740643 4.031975,3.93856059 3.69312108,3.5024454 C3.35426715,3.06633021 3.43311299,2.43809361 3.86922818,2.09923968 C4.45579507,1.6434874 5.09145377,1.25398386 5.76472709,0.93880352 Z M0.28971715,7.60155208 C0.421774733,7.06528793 0.963556544,6.73761376 1.4998207,6.86967135 C2.03608485,7.00172893 2.36375901,7.54351074 2.23170143,8.07977489 C2.09063394,8.65262679 2.01302901,9.24279765 2.00150549,9.84302857 C1.99090441,10.3952116 1.53467778,10.8342505 0.98249478,10.8236494 C0.430311783,10.8130483 -0.00872710865,10.3568217 0.0018739691,9.80463868 C0.0162499903,9.05582854 0.113251563,8.31814984 0.28971715,7.60155208 Z M2.05996221,16.0798851 C1.72390798,15.6416089 1.80677524,15.0138901 2.24505141,14.6778359 C2.68332757,14.3417816 3.31104639,14.4246489 3.64710062,14.8629251 C4.00892243,15.3348069 4.42232863,15.7655129 4.87900891,16.1464661 C5.30310934,16.5002419 5.36011877,17.1308351 5.00634303,17.5549355 C4.65256729,17.9790359 4.02197407,18.0360454 3.59787364,17.6822696 C3.02775555,17.206689 2.51171612,16.6690548 2.05996221,16.0798851 Z" id="Shape"></path>
        </g>
    </g>
</svg>