<?xml version="1.0" encoding="UTF-8"?>
<svg width="24px" height="24px" viewBox="0 0 24 24" version="1.1" xmlns="http://www.w3.org/2000/svg" xmlns:xlink="http://www.w3.org/1999/xlink">
    <!-- Generator: Sketch 52.5 (67469) - http://www.bohemiancoding.com/sketch -->
    <title>icon/logo</title>
    <desc>Created with Sketch.</desc>
    <g id="icon/logo" stroke="none" stroke-width="1" fill="none" fill-rule="evenodd">
        <g id="b-link" transform="translate(14.000000, 0.000000)" fill="#000000">
            <path d="M2.8125,0.1175 C1.76143309,0.1175 0.909375,0.969558085 0.909375,2.020625 C0.909375,3.07169191 1.76143309,3.92375 2.8125,3.92375 C3.86356691,3.92375 4.715625,3.07169191 4.715625,2.020625 C4.715625,0.969558085 3.86356691,0.1175 2.8125,0.1175 Z" id="b"></path>
        </g>
        <path d="M16.7000522,10 C16.1639411,10.0003477 15.6499687,10.2088262 15.2713859,10.5794984 C14.8928031,10.9501707 14.6806772,11.4526185 14.6817488,11.9761305 L14.6817488,16.17278 C14.6798478,18.0630946 13.3305369,19.6971802 11.4391388,20.0997494 C9.54774065,20.5023185 7.62442075,19.5647864 6.81709318,17.8467097 C6.33221923,16.8977542 5.16422159,16.4950219 4.17664915,16.9362695 C3.1890767,17.3775171 2.73754532,18.5038553 3.15589078,19.4825359 C4.4775805,22.3197489 7.37377739,24.1423499 10.5657554,24.1456258 C15.0683028,24.1405622 18.7176698,20.5787154 18.7250833,16.1819774 L18.7250833,11.9853279 C18.7272301,11.4595125 18.5148273,10.9545141 18.1348274,10.5819645 C17.7548274,10.2094149 17.2385256,9.99999582 16.7000522,10 Z" id="a" fill="#000000"></path>
    </g>
</svg>