<?xml version="1.0" encoding="UTF-8"?>
<svg width="24px" height="24px" viewBox="0 0 24 24" version="1.1" xmlns="http://www.w3.org/2000/svg" xmlns:xlink="http://www.w3.org/1999/xlink">
    <!-- Generator: Sketch 52.5 (67469) - http://www.bohemiancoding.com/sketch -->
    <title>icon/managed-projects</title>
    <desc>Created with Sketch.</desc>
    <g id="icon/managed-projects" stroke="none" stroke-width="1" fill="none" fill-rule="evenodd">
        <g id="Group-2" transform="translate(1.000000, 1.000000)" fill="#000000" fill-rule="nonzero">
            <path d="M15.458222,12.4347826 L12.4782609,12.4347826 C11.9259761,12.4347826 11.4782609,12.8824979 11.4782609,13.4347826 L11.4782609,21.3865222 C10.7500088,21.4696931 9.93953291,21.5217391 9.05156056,21.5217391 C6.8617095,21.5217391 4.2011681,21.2057733 1.13878013,20.2582589 L0.81389937,20.1575329 L0.801909723,20.084382 L0.801909723,15.413833 C0.801909723,12.2361745 3.41255872,9.65061681 6.6215298,9.65061681 L10.4783286,9.65061681 C12.5871862,9.65061681 14.4376405,10.767267 15.458222,12.4347826 Z M8.55031595,9.34384275 C6.04022529,9.34384275 4.00430583,7.32893842 4.00430583,4.8433408 C4.00430583,2.35774318 6.04022529,0.342455861 8.55031595,0.342455861 C11.0604066,0.342455861 13.0955526,2.35736019 13.0955526,4.84295781 C13.0955526,7.32855543 11.0607934,9.34384275 8.55031595,9.34384275 Z" id="Combined-Shape"></path>
            <rect id="Rectangle" x="12.4347826" y="13.3913043" width="3.82608696" height="3.82608696" rx="1"></rect>
            <rect id="Rectangle" x="17.2173913" y="13.3913043" width="3.82608696" height="3.82608696" rx="1"></rect>
            <rect id="Rectangle" x="12.4347826" y="18.173913" width="3.82608696" height="3.82608696" rx="1"></rect>
            <rect id="Rectangle" x="17.2173913" y="18.173913" width="3.82608696" height="3.82608696" rx="1"></rect>
        </g>
    </g>
</svg>