<?xml version="1.0" encoding="UTF-8"?>
<svg width="24px" height="24px" viewBox="0 0 24 24" version="1.1" xmlns="http://www.w3.org/2000/svg" xmlns:xlink="http://www.w3.org/1999/xlink">
    <!-- Generator: Sketch 52.5 (67469) - http://www.bohemiancoding.com/sketch -->
    <title>icon/managment/blue</title>
    <desc>Created with Sketch.</desc>
    <g id="icon/managment/blue" stroke="none" stroke-width="1" fill="none" fill-rule="evenodd">
        <path d="M14.0346687,6.08946658 C15.0333957,6.70954874 15.7337177,7.75885694 15.8612205,8.97686593 C16.2685286,9.16531965 16.7205841,9.27369389 17.1998652,9.27369389 C18.9495919,9.27369389 20.3677574,7.86936663 20.3677574,6.13698041 C20.3677574,4.40432726 18.9495919,3 17.1998652,3 C15.4668514,3.00053386 14.0610857,4.37976955 14.0346687,6.08946658 Z M11.9593111,12.5123752 C13.7090378,12.5123752 15.1272033,11.1077811 15.1272033,9.37539484 C15.1272033,7.64300862 13.7087683,6.23868136 11.9593111,6.23868136 C10.209854,6.23868136 8.79087982,7.64327555 8.79087982,9.37566177 C8.79087982,11.108048 10.209854,12.5123752 11.9593111,12.5123752 Z M13.3030775,12.7261875 L10.6150056,12.7261875 C8.37845002,12.7261875 6.55890678,14.5282428 6.55890678,16.7429745 L6.55890678,19.9982056 L6.5672632,20.0491896 L6.79369525,20.1193926 C8.92808686,20.7797814 10.7824036,21 12.3086634,21 C15.2897492,21 17.0176413,20.1583646 17.1241183,20.1047113 L17.3357244,19.9987395 L17.3583677,19.9987395 L17.3583677,16.7429745 C17.3591763,14.5282428 15.5396331,12.7261875 13.3030775,12.7261875 Z M18.5441707,9.48777305 L15.8768551,9.48777305 C15.848012,10.5445553 15.3924523,11.4961666 14.6719131,12.1805792 C16.6599326,12.7659603 18.114489,14.5915056 18.114489,16.7477793 L18.114489,17.7509083 C20.7481093,17.6553468 22.2657432,16.9162131 22.3657507,16.8665638 L22.5773568,16.7603251 L22.6,16.7603251 L22.6,13.5040262 C22.6,11.2895615 20.7804568,9.48777305 18.5441707,9.48777305 Z M6.4006739,9.27422775 C7.02039686,9.27422775 7.59698989,9.09511663 8.08543617,8.79001379 C8.24070386,7.78715169 8.78360165,6.91081518 9.55913141,6.31395607 C9.56236615,6.25523112 9.56802696,6.19704002 9.56802696,6.13778121 C9.56802696,4.40512805 8.14959191,3.00080079 6.4006739,3.00080079 C4.65067765,3.00080079 3.23278173,4.40512805 3.23278173,6.13778121 C3.23278173,7.86963356 4.65067765,9.27422775 6.4006739,9.27422775 Z M9.24563085,12.1805792 C8.52859603,11.4996367 8.07465369,10.5530971 8.04149757,9.50272122 C7.94256833,9.49551407 7.84471733,9.48777305 7.74390116,9.48777305 L5.05609884,9.48777305 C2.81954324,9.48777305 1,11.2895615 1,13.5040262 L1,16.7597912 L1.00835642,16.8099743 L1.23478847,16.8807112 C2.94704605,17.4100366 4.47519281,17.6540121 5.80251591,17.7308884 L5.80251591,16.7477793 C5.80305504,14.5915056 7.25707226,12.7664941 9.24563085,12.1805792 Z" id="Shape" fill="#2D5FE6"></path>
    </g>
</svg>