<?xml version="1.0" encoding="UTF-8"?>
<svg width="24px" height="24px" viewBox="0 0 24 24" version="1.1" xmlns="http://www.w3.org/2000/svg" xmlns:xlink="http://www.w3.org/1999/xlink">
    <!-- Generator: Sketch 52.5 (67469) - http://www.bohemiancoding.com/sketch -->
    <title>icon/managed-projects-blue</title>
    <desc>Created with Sketch.</desc>
    <g id="icon/managed-projects-blue" stroke="none" stroke-width="1" fill="none" fill-rule="evenodd">
        <path d="M16.458222,13.4347826 L13.4782609,13.4347826 C12.9259761,13.4347826 12.4782609,13.8824979 12.4782609,14.4347826 L12.4782609,22.3865222 C11.7500088,22.4696931 10.9395329,22.5217391 10.0515606,22.5217391 C7.8617095,22.5217391 5.2011681,22.2057733 2.13878013,21.2582589 L1.81389937,21.1575329 L1.80190972,21.084382 L1.80190972,16.413833 C1.80190972,13.2361745 4.41255872,10.6506168 7.6215298,10.6506168 L11.4783286,10.6506168 C13.5871862,10.6506168 15.4376405,11.767267 16.458222,13.4347826 Z M9.55031595,10.3438427 C7.04022529,10.3438427 5.00430583,8.32893842 5.00430583,5.8433408 C5.00430583,3.35774318 7.04022529,1.34245586 9.55031595,1.34245586 C12.0604066,1.34245586 14.0955526,3.35736019 14.0955526,5.84295781 C14.0955526,8.32855543 12.0607934,10.3438427 9.55031595,10.3438427 Z" id="Combined-Shape" fill="#2D5FE6"></path>
        <rect id="Rectangle" fill="#2D5FE6" x="13.4347826" y="14.3913043" width="3.82608696" height="3.82608696" rx="1"></rect>
        <rect id="Rectangle" fill="#2D5FE6" x="18.2173913" y="14.3913043" width="3.82608696" height="3.82608696" rx="1"></rect>
        <rect id="Rectangle" fill="#2D5FE6" x="13.4347826" y="19.173913" width="3.82608696" height="3.82608696" rx="1"></rect>
        <rect id="Rectangle" fill="#2D5FE6" x="18.2173913" y="19.173913" width="3.82608696" height="3.82608696" rx="1"></rect>
    </g>
</svg>