<?xml version="1.0" encoding="UTF-8"?>
<svg width="24px" height="24px" viewBox="0 0 24 24" version="1.1" xmlns="http://www.w3.org/2000/svg" xmlns:xlink="http://www.w3.org/1999/xlink">
    <!-- Generator: Sketch 52.5 (67469) - http://www.bohemiancoding.com/sketch -->
    <title>icon/managment</title>
    <desc>Created with Sketch.</desc>
    <g id="icon/managment" stroke="none" stroke-width="1" fill="none" fill-rule="evenodd">
        <g id="group" transform="translate(1.000000, 3.000000)" fill="#000000" fill-rule="nonzero">
            <path d="M13.0346687,3.08946658 C14.0333957,3.70954874 14.7337177,4.75885694 14.8612205,5.97686593 C15.2685286,6.16531965 15.7205841,6.27369389 16.1998652,6.27369389 C17.9495919,6.27369389 19.3677574,4.86936663 19.3677574,3.13698041 C19.3677574,1.40432726 17.9495919,0 16.1998652,0 C14.4668514,0.000533863242 13.0610857,1.37976955 13.0346687,3.08946658 Z M10.9593111,9.51237525 C12.7090378,9.51237525 14.1272033,8.10778106 14.1272033,6.37539484 C14.1272033,4.64300862 12.7087683,3.23868136 10.9593111,3.23868136 C9.20985399,3.23868136 7.79087982,4.64327555 7.79087982,6.37566177 C7.79087982,8.10804799 9.20985399,9.51237525 10.9593111,9.51237525 Z M12.3030775,9.72618747 L9.61500562,9.72618747 C7.37845002,9.72618747 5.55890678,11.5282428 5.55890678,13.7429745 L5.55890678,16.9982056 L5.5672632,17.0491896 L5.79369525,17.1193926 C7.92808686,17.7797814 9.78240359,18 11.3086634,18 C14.2897492,18 16.0176413,17.1583646 16.1241183,17.1047113 L16.3357244,16.9987395 L16.3583677,16.9987395 L16.3583677,13.7429745 C16.3591763,11.5282428 14.5396331,9.72618747 12.3030775,9.72618747 Z M17.5441707,6.48777305 L14.8768551,6.48777305 C14.848012,7.54455534 14.3924523,8.49616657 13.6719131,9.18057924 C15.6599326,9.76596029 17.114489,11.5915056 17.114489,13.7477793 L17.114489,14.7509083 C19.7481093,14.6553468 21.2657432,13.9162131 21.3657507,13.8665638 L21.5773568,13.7603251 L21.6,13.7603251 L21.6,10.5040262 C21.6,8.28956149 19.7804568,6.48777305 17.5441707,6.48777305 Z M5.4006739,6.27422775 C6.02039686,6.27422775 6.59698989,6.09511663 7.08543617,5.79001379 C7.24070386,4.78715169 7.78360165,3.91081518 8.55913141,3.31395607 C8.56236615,3.25523112 8.56802696,3.19704002 8.56802696,3.13778121 C8.56802696,1.40512805 7.14959191,0.000800794863 5.4006739,0.000800794863 C3.65067765,0.000800794863 2.23278173,1.40512805 2.23278173,3.13778121 C2.23278173,4.86963356 3.65067765,6.27422775 5.4006739,6.27422775 Z M8.24563085,9.18057924 C7.52859603,8.49963668 7.07465369,7.55309715 7.04149757,6.50272122 C6.94256833,6.49551407 6.84471733,6.48777305 6.74390116,6.48777305 L4.05609884,6.48777305 C1.81954324,6.48777305 0,8.28956149 0,10.5040262 L0,13.7597912 L0.00835642082,13.8099743 L0.234788469,13.8807112 C1.94704605,14.4100366 3.47519281,14.6540121 4.80251591,14.7308884 L4.80251591,13.7477793 C4.80305504,11.5915056 6.25707226,9.76649415 8.24563085,9.18057924 Z" id="Shape"></path>
        </g>
    </g>
</svg>