<?xml version="1.0" encoding="UTF-8"?>
<svg width="376px" height="88px" viewBox="0 0 376 88" version="1.1" xmlns="http://www.w3.org/2000/svg" xmlns:xlink="http://www.w3.org/1999/xlink">
    <!-- Generator: Sketch 52.5 (67469) - http://www.bohemiancoding.com/sketch -->
    <title>network-error</title>
    <desc>Created with Sketch.</desc>
    <g id="network-error" stroke="none" stroke-width="1" fill="none" fill-rule="evenodd">
        <g id="Group-2">
            <rect id="Rectangle" x="0" y="0" width="376" height="88"></rect>
            <g id="Group" transform="translate(16.000000, 8.000000)" fill="#000000">
                <rect id="Rectangle" x="29" y="34" width="270" height="4" rx="2"></rect>
                <path d="M16,52 C7.163444,52 0,44.836556 0,36 C0,27.163444 7.163444,20 16,20 C24.836556,20 32,27.163444 32,36 C32,44.836556 24.836556,52 16,52 Z M16,48 C22.627417,48 28,42.627417 28,36 C28,29.372583 22.627417,24 16,24 C9.372583,24 4,29.372583 4,36 C4,42.627417 9.372583,48 16,48 Z" id="Combined-Shape"></path>
                <g id="icon/cross" transform="translate(289.000000, 0.000000)" fill-rule="nonzero">
                    <path d="M39.0624458,33.0624458 L58.5624458,33.0624458 C60.2193001,33.0624458 61.5624458,34.4055916 61.5624458,36.0624458 C61.5624458,37.7193001 60.2193001,39.0624458 58.5624458,39.0624458 L39.0624458,39.0624458 L39.0624458,58.5624458 C39.0624458,60.2193001 37.7193001,61.5624458 36.0624458,61.5624458 C34.4055916,61.5624458 33.0624458,60.2193001 33.0624458,58.5624458 L33.0624458,39.0624458 L13.5624458,39.0624458 C11.9055916,39.0624458 10.5624458,37.7193001 10.5624458,36.0624458 C10.5624458,34.4055916 11.9055916,33.0624458 13.5624458,33.0624458 L33.0624458,33.0624458 L33.0624458,13.5624458 C33.0624458,11.9055916 34.4055916,10.5624458 36.0624458,10.5624458 C37.7193001,10.5624458 39.0624458,11.9055916 39.0624458,13.5624458 L39.0624458,33.0624458 Z" id="plus" transform="translate(36.062446, 36.062446) rotate(45.000000) translate(-36.062446, -36.062446) "></path>
                </g>
            </g>
        </g>
    </g>
</svg>