<?xml version="1.0" encoding="UTF-8"?>
<svg width="24px" height="24px" viewBox="0 0 24 24" version="1.1" xmlns="http://www.w3.org/2000/svg" xmlns:xlink="http://www.w3.org/1999/xlink">
    <!-- Generator: Sketch 52.5 (67469) - http://www.bohemiancoding.com/sketch -->
    <title>icon/pencil</title>
    <desc>Created with Sketch.</desc>
    <g id="icon/pencil" stroke="none" stroke-width="1" fill="none" fill-rule="evenodd">
        <path d="M9.77817459,6.77817459 L13.7781746,6.77817459 L13.7781746,17.475399 C13.7781746,17.6728239 13.7197366,17.8658316 13.6102249,18.0300992 L12.6102249,19.5300992 C12.3038724,19.9896278 11.6830031,20.1138017 11.2234744,19.8074492 C11.1136221,19.7342144 11.0193592,19.6399514 10.9461243,19.5300992 L9.9461243,18.0300992 C9.83661262,17.8658316 9.77817459,17.6728239 9.77817459,17.475399 L9.77817459,6.77817459 Z M9.77817459,5.77817459 L9.77817459,3.77817459 C9.77817459,3.22588984 10.2258898,2.77817459 10.7781746,2.77817459 L12.7781746,2.77817459 C13.3304593,2.77817459 13.7781746,3.22588984 13.7781746,3.77817459 L13.7781746,5.77817459 L9.77817459,5.77817459 Z" id="pencil" fill="#000000" fill-rule="nonzero" transform="translate(11.778175, 11.778175) rotate(-315.000000) translate(-11.778175, -11.778175) "></path>
    </g>
</svg>