<?xml version="1.0" encoding="UTF-8"?>
<svg width="24px" height="24px" viewBox="0 0 24 24" version="1.1" xmlns="http://www.w3.org/2000/svg" xmlns:xlink="http://www.w3.org/1999/xlink">
    <!-- Generator: Sketch 52.5 (67469) - http://www.bohemiancoding.com/sketch -->
    <title>icon/plus-blue</title>
    <desc>Created with Sketch.</desc>
    <g id="icon/plus-blue" stroke="none" stroke-width="1" fill="none" fill-rule="evenodd">
        <path d="M12.8823529,11.1176471 L18.6176471,11.1176471 C19.1049571,11.1176471 19.5,11.5126899 19.5,12 C19.5,12.4873101 19.1049571,12.8823529 18.6176471,12.8823529 L12.8823529,12.8823529 L12.8823529,18.6176471 C12.8823529,19.1049571 12.4873101,19.5 12,19.5 C11.5126899,19.5 11.1176471,19.1049571 11.1176471,18.6176471 L11.1176471,12.8823529 L5.38235294,12.8823529 C4.89504287,12.8823529 4.5,12.4873101 4.5,12 C4.5,11.5126899 4.89504287,11.1176471 5.38235294,11.1176471 L11.1176471,11.1176471 L11.1176471,5.38235294 C11.1176471,4.89504287 11.5126899,4.5 12,4.5 C12.4873101,4.5 12.8823529,4.89504287 12.8823529,5.38235294 L12.8823529,11.1176471 Z" id="plus" fill="#2D5FE6"></path>
    </g>
</svg>