<?xml version="1.0" encoding="UTF-8"?>
<svg width="20px" height="20px" viewBox="0 0 20 20" version="1.1" xmlns="http://www.w3.org/2000/svg" xmlns:xlink="http://www.w3.org/1999/xlink">
    <!-- Generator: Sketch 52.4 (67378) - http://www.bohemiancoding.com/sketch -->
    <title>icon/add</title>
    <desc>Created with Sketch.</desc>
    <g id="icon/add" stroke="none" stroke-width="1" fill="none" fill-rule="evenodd">
        <path d="M11,9 L17.5,9 C18.0522847,9 18.5,9.44771525 18.5,10 C18.5,10.5522847 18.0522847,11 17.5,11 L11,11 L11,17.5 C11,18.0522847 10.5522847,18.5 10,18.5 C9.44771525,18.5 9,18.0522847 9,17.5 L9,11 L2.5,11 C1.94771525,11 1.5,10.5522847 1.5,10 C1.5,9.44771525 1.94771525,9 2.5,9 L9,9 L9,2.5 C9,1.94771525 9.44771525,1.5 10,1.5 C10.5522847,1.5 11,1.94771525 11,2.5 L11,9 Z" id="plus" fill="#000000" fill-rule="nonzero"></path>
    </g>
</svg>