<?xml version="1.0" encoding="UTF-8"?>
<svg width="20px" height="20px" viewBox="0 0 20 20" version="1.1" xmlns="http://www.w3.org/2000/svg" xmlns:xlink="http://www.w3.org/1999/xlink">
    <!-- Generator: Sketch 52.4 (67378) - http://www.bohemiancoding.com/sketch -->
    <title>icon/remove</title>
    <desc>Created with Sketch.</desc>
    <g id="icon/remove" stroke="none" stroke-width="1" fill="none" fill-rule="evenodd">
        <path d="M4.16561126,6 L15.8343887,6 C16.3866735,6 16.8343887,6.44771525 16.8343887,7 C16.8343887,7.05090783 16.8305013,7.10174133 16.8227604,7.15205718 L15.1304527,18.1520572 C15.0554017,18.6398889 14.6356521,19 14.142081,19 L5.85791896,19 C5.36434788,19 4.94459829,18.6398889 4.86954726,18.1520572 L3.17723957,7.15205718 C3.0932607,6.60619457 3.46769146,6.09560717 4.01355408,6.0116283 C4.06386993,6.0038874 4.11470344,6 4.16561126,6 Z M6.38742589,3 C6.38742589,2.8925179 6.40475377,2.7857387 6.43874259,2.68377223 L6.77207592,1.68377223 C6.90818997,1.27543009 7.29032881,1 7.72075922,1 L12.2792408,1 C12.7096712,1 13.09181,1.27543009 13.2279241,1.68377223 L13.5612574,2.68377223 C13.5962147,2.78864395 13.6128305,2.89521343 13.6128454,3 L17,3 C17.5522847,3 18,3.44771525 18,4 L18,5 L2,5 L2,4 C2,3.44771525 2.44771525,3 3,3 L6.38742589,3 Z M7,8 C6.44771525,8 6,8.44771525 6,9 L6,16 C6,16.5522847 6.44771525,17 7,17 C7.55228475,17 8,16.5522847 8,16 L8,9 C8,8.44771525 7.55228475,8 7,8 Z M10,8 C9.44771525,8 9,8.44771525 9,9 L9,16 C9,16.5522847 9.44771525,17 10,17 C10.5522847,17 11,16.5522847 11,16 L11,9 C11,8.44771525 10.5522847,8 10,8 Z M13,8 C12.4477153,8 12,8.44771525 12,9 L12,16 C12,16.5522847 12.4477153,17 13,17 C13.5522847,17 14,16.5522847 14,16 L14,9 C14,8.44771525 13.5522847,8 13,8 Z" id="trashcan" fill="#000000" fill-rule="nonzero"></path>
    </g>
</svg>