<?xml version="1.0" encoding="UTF-8"?>
<svg width="24px" height="24px" viewBox="0 0 24 24" version="1.1" xmlns="http://www.w3.org/2000/svg" xmlns:xlink="http://www.w3.org/1999/xlink">
    <!-- Generator: Sketch 52.5 (67469) - http://www.bohemiancoding.com/sketch -->
    <title>icon/settings</title>
    <desc>Created with Sketch.</desc>
    <g id="icon/settings" stroke="none" stroke-width="1" fill="none" fill-rule="evenodd">
        <path d="M20.8398769,14 L19.8398769,13.4166667 C18.7565436,12.75 18.7565436,11.1666667 19.8398769,10.5 L20.8398769,9.91666667 C21.6732103,9.41666667 21.9232103,8.41666667 21.4232103,7.66666667 L20.5898769,6.25 C20.0898769,5.41666667 19.0898769,5.16666667 18.3398769,5.66666667 L17.3398769,6.25 C16.2565436,6.91666667 14.8398769,6.08333333 14.8398769,4.83333333 L14.8398769,3.66666667 C14.8398769,2.75 14.0898769,2 13.1732103,2 L11.5065436,2 C10.5898769,2 9.83987694,2.75 9.83987694,3.66666667 L9.83987694,4.75 C9.83987694,6 8.42321027,6.83333333 7.33987694,6.16666667 L6.33987694,5.66666667 C5.50654361,5.16666667 4.50654361,5.5 4.08987694,6.25 L3.25654361,7.66666667 C2.83987694,8.5 3.08987694,9.5 3.83987694,10 L4.83987694,10.5833333 C5.92321027,11.1666667 5.92321027,12.8333333 4.83987694,13.4166667 L3.83987694,14 C3.00654361,14.5 2.75654361,15.5 3.25654361,16.25 L4.08987694,17.6666667 C4.58987694,18.5 5.58987694,18.75 6.33987694,18.25 L7.33987694,17.75 C8.42321027,17.0833333 9.83987694,17.9166667 9.83987694,19.1666667 L9.83987694,20.3333333 C9.83987694,21.25 10.5898769,22 11.5065436,22 L13.1732103,22 C14.0898769,22 14.8398769,21.25 14.8398769,20.3333333 L14.8398769,19.25 C14.8398769,18 16.2565436,17.1666667 17.3398769,17.8333333 L18.3398769,18.4166667 C19.1732103,18.9166667 20.1732103,18.5833333 20.5898769,17.8333333 L21.4232103,16.4166667 C21.8398769,15.5 21.5898769,14.5 20.8398769,14 Z M12.3398769,15.3333333 C10.5065436,15.3333333 9.00654361,13.8333333 9.00654361,12 C9.00654361,10.1666667 10.5065436,8.66666667 12.3398769,8.66666667 C14.1732103,8.66666667 15.6732103,10.1666667 15.6732103,12 C15.6732103,13.8333333 14.1732103,15.3333333 12.3398769,15.3333333 Z" id="settings" fill="#000000" fill-rule="nonzero"></path>
    </g>
</svg>