<?xml version="1.0" encoding="UTF-8"?>
<svg width="24px" height="24px" viewBox="0 0 24 24" version="1.1" xmlns="http://www.w3.org/2000/svg" xmlns:xlink="http://www.w3.org/1999/xlink">
    <!-- Generator: Sketch 52.5 (67469) - http://www.bohemiancoding.com/sketch -->
    <title>icon/trashcan-blue</title>
    <desc>Created with Sketch.</desc>
    <g id="icon/trashcan-blue" stroke="none" stroke-width="1" fill="none" fill-rule="evenodd">
        <g id="delete" transform="translate(5.500000, 4.000000)" fill="#2D5FE6">
            <path d="M8.71890717,5.80710956 C8.51257184,5.80710956 8.34534395,5.97406762 8.34534395,6.18006993 L8.34534395,13.229021 C8.34534395,13.4348776 8.51257184,13.6019814 8.71890717,13.6019814 C8.92524246,13.6019814 9.09247039,13.4348776 9.09247039,13.229021 L9.09247039,6.18006993 C9.09247039,5.97406762 8.92524246,5.80710956 8.71890717,5.80710956 Z" id="Path"></path>
            <path d="M4.31086119,5.80710956 C4.10452586,5.80710956 3.93729797,5.97406762 3.93729797,6.18006993 L3.93729797,13.229021 C3.93729797,13.4348776 4.10452586,13.6019814 4.31086119,13.6019814 C4.51719648,13.6019814 4.68442441,13.4348776 4.68442441,13.229021 L4.68442441,6.18006993 C4.68442441,5.97406762 4.51719648,5.80710956 4.31086119,5.80710956 Z" id="Path"></path>
            <path d="M1.09821751,4.7784091 L1.09821751,13.967366 C1.09821751,14.5104895 1.29769441,15.0205419 1.64615884,15.3865093 C1.99301812,15.7534965 2.47573188,15.9618298 2.98091774,15.962704 L10.0488506,15.962704 C10.5541824,15.9618298 11.0368961,15.7534965 11.3836095,15.3865093 C11.7320739,15.0205419 11.9315508,14.5104895 11.9315508,13.967366 L11.9315508,4.7784091 C12.6242479,4.59484267 13.0731075,3.9267191 12.9804463,3.21707457 C12.8876392,2.50757576 12.2822041,1.97683566 11.5654297,1.97668998 L9.65281521,1.97668998 L9.65281521,1.51048951 C9.65500403,1.11844405 9.49974182,0.74198717 9.22175826,0.465034965 C8.9437747,0.188228438 8.56612564,0.0340909091 8.17344648,0.0372960373 L4.85632184,0.0372960373 C4.46364268,0.0340909091 4.08599361,0.188228438 3.80801006,0.465034965 C3.5300265,0.74198717 3.37476429,1.11844405 3.37695314,1.51048951 L3.37695314,1.97668998 L1.46433864,1.97668998 C0.747564216,1.97683566 0.142129149,2.50757576 0.049322,3.21707457 C-0.0433391609,3.9267191 0.405520394,4.59484267 1.09821751,4.7784091 Z M10.0488506,15.2167832 L2.98091774,15.2167832 C2.3422122,15.2167832 1.84534395,14.6689977 1.84534395,13.967366 L1.84534395,4.81118881 L11.1844244,4.81118881 L11.1844244,13.967366 C11.1844244,14.6689977 10.6875561,15.2167832 10.0488506,15.2167832 Z M4.12407958,1.51048951 C4.12159886,1.31628789 4.19806258,1.12937063 4.33610588,0.992278564 C4.47400323,0.855186499 4.66166036,0.779865958 4.85632184,0.783216783 L8.17344648,0.783216783 C8.36810792,0.779865958 8.55576509,0.855186499 8.69366244,0.992278564 C8.83170574,1.12922495 8.90816946,1.31628789 8.90568878,1.51048951 L8.90568878,1.97668998 L4.12407958,1.97668998 L4.12407958,1.51048951 Z M1.46433864,2.72261072 L11.5654297,2.72261072 C11.936804,2.72261072 12.2378435,3.02316434 12.2378435,3.39393939 C12.2378435,3.76471444 11.936804,4.06526807 11.5654297,4.06526807 L1.46433864,4.06526807 C1.09296424,4.06526807 0.791924848,3.76471444 0.791924848,3.39393939 C0.791924848,3.02316434 1.09296424,2.72261072 1.46433864,2.72261072 Z" id="Shape"></path>
            <path d="M6.51488418,5.80710956 C6.30854885,5.80710956 6.14132096,5.97406762 6.14132096,6.18006993 L6.14132096,13.229021 C6.14132096,13.4348776 6.30854885,13.6019814 6.51488418,13.6019814 C6.72121947,13.6019814 6.8884474,13.4348776 6.8884474,13.229021 L6.8884474,6.18006993 C6.8884474,5.97406762 6.72121947,5.80710956 6.51488418,5.80710956 Z" id="Path"></path>
        </g>
    </g>
</svg>